# xmcd CD database file
#
# Track frame offsets:
#	150
#	25800
#	31725
#	42975
#	53475
#	66075
#	76350
#	90430
#	101625
#	111825
#	127650
#	150150
#	167400
#	178950
#	201450
#	220275
#
# Disc length: 3163 seconds
#
# Revision: 6
# Processed by: cddbd v1.5.2PL0 Copyright (c) Steve Scherf et al.
# Submitted via: CDex 1.51
#
DISCID=c50c5910
DTITLE=Eric Clapton - The First Time I Met The Blues
DYEAR=1990
DGENRE=Blues
TTITLE0=She's So Respectable
TTITLE1=Choker
TTITLE2=Shake Drive
TTITLE3=Got To Hurry
TTITLE4=Freight Loader
TTITLE5=A Certain Girl
TTITLE6=Dragging My Tail
TTITLE7=For Your Love
TTITLE8=I Wish You Would
TTITLE9=Louise
TTITLE10=Five Long Years
TTITLE11=Early In The Morning
TTITLE12=Pounds And Stomps
TTITLE13=The First Time I Met The Blues
TTITLE14=Stormy Monday Blues
TTITLE15=Big Boss Man
EXTD=YEAR: 1990
EXTT0=
EXTT1=
EXTT2=
EXTT3=
EXTT4=
EXTT5=
EXTT6=
EXTT7=
EXTT8=
EXTT9=
EXTT10=
EXTT11=
EXTT12=
EXTT13=
EXTT14=
EXTT15=
PLAYORDER=
